<svg xmlns="http://www.w3.org/2000/svg" viewBox="0 0 512 512">
  <defs>
    <radialGradient id="ig-gradient" cx="30%" cy="107%">
      <stop offset="0%" stop-color="#fdf497"/>
      <stop offset="5%" stop-color="#fdf497"/>
      <stop offset="45%" stop-color="#fd5949"/>
      <stop offset="60%" stop-color="#d6249f"/>
      <stop offset="90%" stop-color="#285AEB"/>
    </radialGradient>
  </defs>
  <circle cx="256" cy="256" r="256" fill="url(#ig-gradient)"/>
  <path fill="white" d="M256 109c47.4 0 53 0.2 71.8 1 17.3 0.8 26.7 3.7 33 6.1 8.3 3.2 14.2 7.1 20.4 13.3 6.2 6.2 10.1 12.1 13.3 20.4 2.4 6.3 5.3 15.7 6.1 33 0.9 18.8 1 24.4 1 71.8s-0.1 53-1 71.8c-0.8 17.3-3.7 26.7-6.1 33 -3.2 8.3-7.1 14.2-13.3 20.4 -6.2 6.2-12.1 10.1-20.4 13.3 -6.3 2.4-15.7 5.3-33 6.1 -18.8 0.9-24.4 1-71.8 1s-53-0.1-71.8-1c-17.3-0.8-26.7-3.7-33-6.1 -8.3-3.2-14.2-7.1-20.4-13.3 -6.2-6.2-10.1-12.1-13.3-20.4 -2.4-6.3-5.3-15.7-6.1-33 -0.9-18.8-1-24.4-1-71.8s0.1-53 1-71.8c0.8-17.3 3.7-26.7 6.1-33 3.2-8.3 7.1-14.2 13.3-20.4 6.2-6.2 12.1-10.1 20.4-13.3 6.3-2.4 15.7-5.3 33-6.1C203 109.2 208.6 109 256 109M256 77.1c-48.2 0-54.3 0.2-73.2 1.1 -19 0.9-31.9 3.9-43.2 8.3 -11.7 4.5-21.7 10.6-31.6 20.5S97.9 126.8 93.4 138.5c-4.4 11.3-7.4 24.2-8.3 43.2 -0.9 19-1.1 25-1.1 73.2s0.2 54.3 1.1 73.2c0.9 19 3.9 31.9 8.3 43.2 4.5 11.7 10.6 21.7 20.5 31.6s19.8 16 31.6 20.5c11.3 4.4 24.2 7.4 43.2 8.3 19 0.9 25 1.1 73.2 1.1s54.3-0.2 73.2-1.1c19-0.9 31.9-3.9 43.2-8.3 11.7-4.5 21.7-10.6 31.6-20.5s16-19.8 20.5-31.6c4.4-11.3 7.4-24.2 8.3-43.2 0.9-19 1.1-25 1.1-73.2s-0.2-54.3-1.1-73.2c-0.9-19-3.9-31.9-8.3-43.2 -4.5-11.7-10.6-21.7-20.5-31.6s-19.8-16-31.6-20.5c-11.3-4.4-24.2-7.4-43.2-8.3C310.3 77.3 304.2 77.1 256 77.1L256 77.1z"/>
  <path fill="white" d="M256 164.1c-50.7 0-91.9 41.1-91.9 91.9s41.1 91.9 91.9 91.9 91.9-41.1 91.9-91.9S306.7 164.1 256 164.1zM256 315.6c-32.9 0-59.6-26.7-59.6-59.6s26.7-59.6 59.6-59.6 59.6 26.7 59.6 59.6S288.9 315.6 256 315.6z"/>
  <circle fill="white" cx="351.5" cy="160.5" r="21.5"/>
</svg>
